<svg version="1.1" id="Layer_1" xmlns="http://www.w3.org/2000/svg" xmlns:xlink="http://www.w3.org/1999/xlink" x="0px" y="0px"
	 width="100%" viewBox="0 0 492 593" enable-background="new 0 0 492 593" xml:space="preserve">
<path fill="#000000" opacity="1.000000" stroke="none" 
	d="
M493.000000,236.000000 
	C493.000000,355.666656 493.000000,474.833344 493.000000,594.000000 
	C329.000000,594.000000 165.000000,594.000000 1.000000,594.000000 
	C1.000000,396.333344 1.000000,198.666672 1.000000,1.000000 
	C165.000000,1.000000 329.000000,1.000000 493.000000,1.000000 
	C493.000000,79.166664 493.000000,157.333328 493.000000,236.000000 
M219.500153,9.000647 
	C213.667709,9.000565 207.810745,9.321605 202.012070,8.879100 
	C198.573135,8.616670 197.103012,10.510568 196.209274,12.850041 
	C192.090790,23.630592 187.948975,34.420769 184.487183,45.418907 
	C183.741959,47.786476 180.200684,51.766403 185.026184,53.930622 
	C191.580597,56.870258 198.261505,59.584717 205.045807,61.942047 
	C216.226196,65.826874 227.532867,69.348251 238.786316,73.022835 
	C237.085922,74.291573 235.464966,74.753090 233.811798,74.981659 
	C226.270935,76.024193 218.710052,76.925720 211.176956,78.019775 
	C200.124802,79.624931 188.917801,80.624268 178.087936,83.193382 
	C161.240433,87.190041 144.686188,92.305489 129.001709,99.955017 
	C109.212204,109.606651 90.769638,121.268867 75.020531,136.684189 
	C66.939674,144.593781 59.692490,153.399384 52.473946,162.135040 
	C42.252457,174.504791 34.149330,188.216904 28.691233,203.348663 
	C24.985083,213.623383 20.891586,223.863586 18.446148,234.459625 
	C15.751294,246.136337 14.055443,258.152832 13.193253,270.112762 
	C12.320788,282.215271 13.195657,294.433624 12.950943,306.594055 
	C12.649675,321.564789 15.698105,336.150360 19.491055,350.325653 
	C23.011293,363.481720 29.242682,375.922638 34.478100,388.596741 
	C35.150967,390.225677 37.012455,391.363586 38.323330,392.728943 
	C39.543056,391.144348 41.255417,389.738068 41.903912,387.946686 
	C46.726448,374.625244 51.207321,361.179749 56.062592,347.870667 
	C59.175835,339.336761 63.045204,331.073334 66.022560,322.496674 
	C69.015198,313.875946 70.457825,304.624573 74.199905,296.385437 
	C77.272285,289.620819 78.293762,282.721802 78.840271,275.752441 
	C79.795197,263.575012 81.548203,251.606567 84.471565,239.754532 
	C87.524666,227.376450 92.052856,215.555573 98.812317,204.828918 
	C104.933098,195.115799 111.114967,185.105240 119.050835,176.961243 
	C127.948097,167.830612 138.394424,159.977219 149.021484,152.840912 
	C156.938156,147.524719 165.955551,143.512451 174.969055,140.272324 
	C182.010712,137.741028 189.911148,137.719467 197.233490,135.823746 
	C213.671951,131.567902 230.481064,130.414047 247.266510,130.219910 
	C259.339325,130.080276 271.534210,131.350220 283.493500,133.177216 
	C294.901611,134.920044 306.334534,137.406815 317.288116,140.996063 
	C331.884277,145.778885 345.210815,153.171997 357.573730,162.662689 
	C371.879486,173.644791 382.986755,187.196640 391.765717,202.499039 
	C397.783173,212.987976 401.914886,224.612244 406.318726,235.950714 
	C408.492401,241.547363 409.794006,247.580124 410.725555,253.535172 
	C411.708099,259.816162 411.776794,266.239899 412.249847,272.600861 
	C413.169495,284.966858 420.632965,295.295685 422.666260,307.570282 
	C424.482056,318.531830 429.897919,328.917389 433.900055,339.490936 
	C438.183807,350.808563 442.614960,362.071564 447.095703,373.312988 
	C449.250458,378.718903 451.667175,384.020447 453.965271,389.369232 
	C454.570923,389.402985 455.176575,389.436737 455.782227,389.470490 
	C457.856262,385.759399 460.353516,382.218781 461.929016,378.306885 
	C467.830017,363.655060 473.115387,348.796112 475.036011,332.973938 
	C476.310455,322.475098 478.330841,312.017395 478.815765,301.485931 
	C479.309845,290.756714 478.622772,279.940521 477.911041,269.198303 
	C477.308319,260.101288 476.777588,250.858826 474.723541,242.027634 
	C470.330139,223.138382 464.772766,204.621048 455.236237,187.426605 
	C446.473175,171.626755 435.849243,157.347687 423.644562,144.136292 
	C410.703735,130.128006 395.604492,118.905365 379.460266,108.846199 
	C363.744659,99.054070 346.475281,93.004356 329.151276,87.221313 
	C317.490021,83.328606 305.383972,80.545044 293.290283,78.247559 
	C284.825409,76.639450 276.046295,76.678101 267.405762,76.004089 
	C260.700134,75.481018 253.991776,74.993217 247.284622,74.489738 
	C247.252441,73.923981 247.220245,73.358223 247.188065,72.792465 
	C261.769287,68.528152 276.332031,64.199081 290.940216,60.029247 
	C297.397736,58.185978 303.971771,56.753548 310.444916,54.961288 
	C313.691742,54.062325 314.795898,52.128010 313.301819,48.650341 
	C308.200745,36.777294 303.043823,24.912506 298.530792,12.812367 
	C297.211884,9.276180 295.520233,8.946899 292.492340,8.956812 
	C268.495148,9.035365 244.497543,9.000599 219.500153,9.000647 
M439.500000,582.999329 
	C454.164673,582.999390 468.833069,582.814392 483.491821,583.108398 
	C488.096100,583.200745 489.064117,581.279968 489.036011,577.336182 
	C488.937439,563.505981 489.011902,549.674561 488.977478,535.843811 
	C488.974243,534.551147 488.885040,533.183167 488.466431,531.978516 
	C482.956238,516.122253 477.481934,500.252197 471.786926,484.462006 
	C467.348358,472.155457 462.552002,459.978394 458.033051,447.700226 
	C454.793030,438.897034 451.816589,429.997070 448.597778,421.185852 
	C445.485413,412.666077 442.097717,404.246155 439.037048,395.708466 
	C433.652985,380.689728 428.515533,365.582428 423.106628,350.572784 
	C418.190063,336.929443 412.998108,323.385529 408.021576,309.763428 
	C402.100311,293.555237 396.346100,277.285858 390.393707,261.089172 
	C385.700012,248.317535 380.693329,235.660385 376.049011,222.871277 
	C370.879578,208.636093 366.120209,194.251099 360.879700,180.042938 
	C357.511688,170.911423 357.265656,171.108505 347.036774,170.979050 
	C326.787933,170.722794 306.540344,170.354813 286.293091,169.986557 
	C282.443329,169.916550 281.000275,171.351181 282.569885,175.127823 
	C283.419617,177.172333 284.261627,179.225769 284.976105,181.319870 
	C289.817413,195.509262 294.526398,209.744583 299.468903,223.898453 
	C304.404785,238.033279 309.507416,252.110733 314.640442,266.175568 
	C319.365204,279.121765 324.375000,291.965240 328.994110,304.948303 
	C335.633484,323.609772 341.970184,342.378723 348.553619,361.060394 
	C353.953888,376.384613 359.533813,391.645477 365.018829,406.939911 
	C369.977722,420.767456 374.882660,434.614441 379.875031,448.429871 
	C383.182343,457.582184 386.682434,466.665192 389.953125,475.830322 
	C395.537109,491.477905 401.061096,507.147430 406.500092,522.845947 
	C408.495972,528.606628 410.178925,534.475708 412.004639,540.295349 
	C413.223297,544.179993 411.089325,545.049072 407.823151,545.045166 
	C389.825867,545.023621 371.826141,545.173401 353.834412,544.855957 
	C351.545746,544.815613 348.473480,542.898010 347.255798,540.928040 
	C345.930084,538.783325 346.078949,535.566467 346.046631,532.811646 
	C345.927460,522.647766 346.210022,512.475159 345.899139,502.319427 
	C345.768463,498.051422 347.739716,495.879425 351.048859,493.959900 
	C357.733551,490.082367 364.408203,486.163696 370.837799,481.887421 
	C372.388977,480.855713 374.036652,478.203430 373.792877,476.572479 
	C373.085968,471.842163 371.655212,467.179657 370.117065,462.622650 
	C367.214478,454.023163 363.989685,445.532959 360.990112,436.965393 
	C358.375702,429.498108 356.316376,428.802612 349.913483,433.592102 
	C346.270142,436.317383 342.922333,439.478577 339.112579,441.932953 
	C327.486084,449.423065 315.912079,457.039398 303.891937,463.855957 
	C297.298584,467.595062 294.571320,471.629120 294.735016,479.717651 
	C295.382202,511.700165 295.005951,543.703491 294.988556,575.699097 
	C294.987427,577.747742 294.811310,579.796265 294.663208,582.999329 
	C342.490234,582.999329 390.495117,582.999329 439.500000,582.999329 
M125.017616,448.932800 
	C121.845894,456.951477 119.184059,465.229462 115.292198,472.881897 
	C113.277641,476.843048 113.822136,479.302185 116.868881,481.240204 
	C123.905434,485.716248 131.074142,490.031097 138.461136,493.890930 
	C142.423218,495.961151 144.405914,499.022766 144.435196,502.989532 
	C144.522079,514.757263 143.675262,526.551941 144.232376,538.286804 
	C144.477173,543.442810 142.743347,545.195679 138.412933,545.841248 
	C137.108673,546.035706 135.763382,545.993469 134.436859,545.994202 
	C118.774857,546.003357 103.112717,546.028809 87.451027,545.959473 
	C85.712143,545.951782 83.986961,545.242920 82.236023,545.104370 
	C77.253876,544.710083 77.222107,541.960693 78.974541,538.400269 
	C80.326599,535.653320 82.161186,533.098999 83.188225,530.245605 
	C86.003876,522.422913 88.335403,514.425476 91.171883,506.610931 
	C95.979988,493.364532 101.180588,480.260010 105.938744,466.996277 
	C112.251320,449.399567 118.242706,431.687897 124.483742,414.065155 
	C127.148407,406.540955 130.216324,399.159698 132.887344,391.637604 
	C137.768234,377.891968 142.394318,364.055511 147.311264,350.323059 
	C150.704666,340.845734 154.579926,331.540131 157.933136,322.049408 
	C162.827515,308.196594 167.360718,294.216400 172.216843,280.349701 
	C174.905594,272.671936 178.062241,265.158569 180.781372,257.490753 
	C183.564270,249.643188 185.972870,241.663345 188.722610,233.803452 
	C192.037674,224.327728 195.738739,214.983597 198.905380,205.460358 
	C202.181595,195.607544 204.778214,185.525497 208.172226,175.716797 
	C209.407654,172.146454 208.624588,171.178970 205.280273,170.992004 
	C200.185699,170.707199 195.097961,170.089951 190.003738,170.048065 
	C174.509399,169.920654 159.012131,169.915237 143.519882,170.135773 
	C141.992783,170.157532 139.667252,171.732391 139.107788,173.140717 
	C133.728165,186.682938 128.522995,200.298477 123.526016,213.987259 
	C120.109222,223.347260 117.349266,232.949310 113.857567,242.279190 
	C107.757805,258.577850 101.091728,274.666168 95.092667,291.000458 
	C89.642593,305.839935 85.053970,320.997040 79.549248,335.814880 
	C74.449356,349.542999 68.250237,362.865906 63.250584,376.627197 
	C58.150509,390.664978 54.060947,405.066498 49.262791,419.218536 
	C46.079613,428.607208 42.449211,437.844971 38.981468,447.136292 
	C34.343456,459.563293 29.599566,471.951202 25.034307,484.404724 
	C21.899668,492.955688 19.252634,501.692291 15.922875,510.163239 
	C10.491170,523.981506 5.285278,537.658508 6.848418,553.068420 
	C7.701593,561.479309 6.989871,570.047913 7.011388,578.545349 
	C7.015015,579.977173 7.158565,581.408691 7.232973,582.758850 
	C7.925464,582.877686 8.241804,582.979370 8.558165,582.979431 
	C70.872849,582.990723 133.187607,582.960266 195.502075,583.078186 
	C199.584412,583.085938 200.060379,581.319641 200.051849,577.946655 
	C199.966263,544.123596 199.906158,510.299652 200.126541,476.477814 
	C200.152069,472.560944 198.227127,470.829315 195.551163,469.233398 
	C185.100876,463.001099 174.375854,457.198822 164.182312,450.575867 
	C155.238174,444.764679 146.900772,438.024323 138.217255,431.803406 
	C136.490433,430.566345 133.996246,428.346893 132.433243,431.425537 
	C129.682175,436.844269 127.602798,442.604004 125.017616,448.932800 
z"/>
<path fill="#FFFFFF" opacity="1.000000" stroke="none" 
	d="
M220.000107,9.000647 
	C244.497543,9.000599 268.495148,9.035365 292.492340,8.956812 
	C295.520233,8.946899 297.211884,9.276180 298.530792,12.812367 
	C303.043823,24.912506 308.200745,36.777294 313.301819,48.650341 
	C314.795898,52.128010 313.691742,54.062325 310.444916,54.961288 
	C303.971771,56.753548 297.397736,58.185978 290.940216,60.029247 
	C276.332031,64.199081 261.769287,68.528152 247.188065,72.792465 
	C247.220245,73.358223 247.252441,73.923981 247.284622,74.489738 
	C253.991776,74.993217 260.700134,75.481018 267.405762,76.004089 
	C276.046295,76.678101 284.825409,76.639450 293.290283,78.247559 
	C305.383972,80.545044 317.490021,83.328606 329.151276,87.221313 
	C346.475281,93.004356 363.744659,99.054070 379.460266,108.846199 
	C395.604492,118.905365 410.703735,130.128006 423.644562,144.136292 
	C435.849243,157.347687 446.473175,171.626755 455.236237,187.426605 
	C464.772766,204.621048 470.330139,223.138382 474.723541,242.027634 
	C476.777588,250.858826 477.308319,260.101288 477.911041,269.198303 
	C478.622772,279.940521 479.309845,290.756714 478.815765,301.485931 
	C478.330841,312.017395 476.310455,322.475098 475.036011,332.973938 
	C473.115387,348.796112 467.830017,363.655060 461.929016,378.306885 
	C460.353516,382.218781 457.856262,385.759399 455.782227,389.470490 
	C455.176575,389.436737 454.570923,389.402985 453.965271,389.369232 
	C451.667175,384.020447 449.250458,378.718903 447.095703,373.312988 
	C442.614960,362.071564 438.183807,350.808563 433.900055,339.490936 
	C429.897919,328.917389 424.482056,318.531830 422.666260,307.570282 
	C420.632965,295.295685 413.169495,284.966858 412.249847,272.600861 
	C411.776794,266.239899 411.708099,259.816162 410.725555,253.535172 
	C409.794006,247.580124 408.492401,241.547363 406.318726,235.950714 
	C401.914886,224.612244 397.783173,212.987976 391.765717,202.499039 
	C382.986755,187.196640 371.879486,173.644791 357.573730,162.662689 
	C345.210815,153.171997 331.884277,145.778885 317.288116,140.996063 
	C306.334534,137.406815 294.901611,134.920044 283.493500,133.177216 
	C271.534210,131.350220 259.339325,130.080276 247.266510,130.219910 
	C230.481064,130.414047 213.671951,131.567902 197.233490,135.823746 
	C189.911148,137.719467 182.010712,137.741028 174.969055,140.272324 
	C165.955551,143.512451 156.938156,147.524719 149.021484,152.840912 
	C138.394424,159.977219 127.948097,167.830612 119.050835,176.961243 
	C111.114967,185.105240 104.933098,195.115799 98.812317,204.828918 
	C92.052856,215.555573 87.524666,227.376450 84.471565,239.754532 
	C81.548203,251.606567 79.795197,263.575012 78.840271,275.752441 
	C78.293762,282.721802 77.272285,289.620819 74.199905,296.385437 
	C70.457825,304.624573 69.015198,313.875946 66.022560,322.496674 
	C63.045204,331.073334 59.175835,339.336761 56.062592,347.870667 
	C51.207321,361.179749 46.726448,374.625244 41.903912,387.946686 
	C41.255417,389.738068 39.543056,391.144348 38.323326,392.728943 
	C37.012455,391.363586 35.150967,390.225677 34.478100,388.596741 
	C29.242682,375.922638 23.011293,363.481720 19.491055,350.325653 
	C15.698105,336.150360 12.649675,321.564789 12.950943,306.594055 
	C13.195657,294.433624 12.320788,282.215271 13.193253,270.112762 
	C14.055443,258.152832 15.751294,246.136337 18.446148,234.459625 
	C20.891586,223.863586 24.985083,213.623383 28.691233,203.348663 
	C34.149330,188.216904 42.252457,174.504791 52.473946,162.135040 
	C59.692490,153.399384 66.939674,144.593781 75.020531,136.684189 
	C90.769638,121.268867 109.212204,109.606651 129.001709,99.955017 
	C144.686188,92.305489 161.240433,87.190041 178.087936,83.193382 
	C188.917801,80.624268 200.124802,79.624931 211.176956,78.019775 
	C218.710052,76.925720 226.270935,76.024193 233.811798,74.981659 
	C235.464966,74.753090 237.085922,74.291573 238.786316,73.022835 
	C227.532867,69.348251 216.226196,65.826874 205.045807,61.942047 
	C198.261505,59.584717 191.580597,56.870258 185.026184,53.930622 
	C180.200684,51.766403 183.741959,47.786476 184.487183,45.418907 
	C187.948975,34.420769 192.090790,23.630592 196.209274,12.850041 
	C197.103012,10.510568 198.573135,8.616670 202.012070,8.879100 
	C207.810745,9.321605 213.667709,9.000565 220.000107,9.000647 
z"/>
<path fill="#FFFFFF" opacity="1.000000" stroke="none" 
	d="
M439.000000,582.999329 
	C390.495117,582.999329 342.490234,582.999329 294.663208,582.999329 
	C294.811310,579.796265 294.987427,577.747742 294.988556,575.699097 
	C295.005951,543.703491 295.382202,511.700165 294.735016,479.717651 
	C294.571320,471.629120 297.298584,467.595062 303.891937,463.855957 
	C315.912079,457.039398 327.486084,449.423065 339.112579,441.932953 
	C342.922333,439.478577 346.270142,436.317383 349.913483,433.592102 
	C356.316376,428.802612 358.375702,429.498108 360.990112,436.965393 
	C363.989685,445.532959 367.214478,454.023163 370.117065,462.622650 
	C371.655212,467.179657 373.085968,471.842163 373.792877,476.572479 
	C374.036652,478.203430 372.388977,480.855713 370.837799,481.887421 
	C364.408203,486.163696 357.733551,490.082367 351.048859,493.959900 
	C347.739716,495.879425 345.768463,498.051422 345.899139,502.319427 
	C346.210022,512.475159 345.927460,522.647766 346.046631,532.811646 
	C346.078949,535.566467 345.930084,538.783325 347.255798,540.928040 
	C348.473480,542.898010 351.545746,544.815613 353.834412,544.855957 
	C371.826141,545.173401 389.825867,545.023621 407.823151,545.045166 
	C411.089325,545.049072 413.223297,544.179993 412.004639,540.295349 
	C410.178925,534.475708 408.495972,528.606628 406.500092,522.845947 
	C401.061096,507.147430 395.537109,491.477905 389.953125,475.830322 
	C386.682434,466.665192 383.182343,457.582184 379.875031,448.429871 
	C374.882660,434.614441 369.977722,420.767456 365.018829,406.939911 
	C359.533813,391.645477 353.953888,376.384613 348.553619,361.060394 
	C341.970184,342.378723 335.633484,323.609772 328.994110,304.948303 
	C324.375000,291.965240 319.365204,279.121765 314.640442,266.175568 
	C309.507416,252.110733 304.404785,238.033279 299.468903,223.898453 
	C294.526398,209.744583 289.817413,195.509262 284.976105,181.319870 
	C284.261627,179.225769 283.419617,177.172333 282.569885,175.127823 
	C281.000275,171.351181 282.443329,169.916550 286.293091,169.986557 
	C306.540344,170.354813 326.787933,170.722794 347.036774,170.979050 
	C357.265656,171.108505 357.511688,170.911423 360.879700,180.042938 
	C366.120209,194.251099 370.879578,208.636093 376.049011,222.871277 
	C380.693329,235.660385 385.700012,248.317535 390.393707,261.089172 
	C396.346100,277.285858 402.100311,293.555237 408.021576,309.763428 
	C412.998108,323.385529 418.190063,336.929443 423.106628,350.572784 
	C428.515533,365.582428 433.652985,380.689728 439.037048,395.708466 
	C442.097717,404.246155 445.485413,412.666077 448.597778,421.185852 
	C451.816589,429.997070 454.793030,438.897034 458.033051,447.700226 
	C462.552002,459.978394 467.348358,472.155457 471.786926,484.462006 
	C477.481934,500.252197 482.956238,516.122253 488.466431,531.978516 
	C488.885040,533.183167 488.974243,534.551147 488.977478,535.843811 
	C489.011902,549.674561 488.937439,563.505981 489.036011,577.336182 
	C489.064117,581.279968 488.096100,583.200745 483.491821,583.108398 
	C468.833069,582.814392 454.164673,582.999390 439.000000,582.999329 
z"/>
<path fill="#FFFFFF" opacity="1.000000" stroke="none" 
	d="
M125.129883,448.576874 
	C127.602798,442.604004 129.682175,436.844269 132.433243,431.425537 
	C133.996246,428.346893 136.490433,430.566345 138.217255,431.803406 
	C146.900772,438.024323 155.238174,444.764679 164.182312,450.575867 
	C174.375854,457.198822 185.100876,463.001099 195.551163,469.233398 
	C198.227127,470.829315 200.152069,472.560944 200.126541,476.477814 
	C199.906158,510.299652 199.966263,544.123596 200.051849,577.946655 
	C200.060379,581.319641 199.584412,583.085938 195.502075,583.078186 
	C133.187607,582.960266 70.872849,582.990723 8.558165,582.979431 
	C8.241804,582.979370 7.925464,582.877686 7.232973,582.758850 
	C7.158565,581.408691 7.015015,579.977173 7.011388,578.545349 
	C6.989871,570.047913 7.701593,561.479309 6.848418,553.068420 
	C5.285278,537.658508 10.491170,523.981506 15.922875,510.163239 
	C19.252634,501.692291 21.899668,492.955688 25.034307,484.404724 
	C29.599566,471.951202 34.343456,459.563293 38.981468,447.136292 
	C42.449211,437.844971 46.079613,428.607208 49.262791,419.218536 
	C54.060947,405.066498 58.150509,390.664978 63.250584,376.627197 
	C68.250237,362.865906 74.449356,349.542999 79.549248,335.814880 
	C85.053970,320.997040 89.642593,305.839935 95.092667,291.000458 
	C101.091728,274.666168 107.757805,258.577850 113.857567,242.279190 
	C117.349266,232.949310 120.109222,223.347260 123.526016,213.987259 
	C128.522995,200.298477 133.728165,186.682938 139.107788,173.140717 
	C139.667252,171.732391 141.992783,170.157532 143.519882,170.135773 
	C159.012131,169.915237 174.509399,169.920654 190.003738,170.048065 
	C195.097961,170.089951 200.185699,170.707199 205.280273,170.992004 
	C208.624588,171.178970 209.407654,172.146454 208.172226,175.716797 
	C204.778214,185.525497 202.181595,195.607544 198.905380,205.460358 
	C195.738739,214.983597 192.037674,224.327728 188.722610,233.803452 
	C185.972870,241.663345 183.564270,249.643188 180.781372,257.490753 
	C178.062241,265.158569 174.905594,272.671936 172.216843,280.349701 
	C167.360718,294.216400 162.827515,308.196594 157.933136,322.049408 
	C154.579926,331.540131 150.704666,340.845734 147.311264,350.323059 
	C142.394318,364.055511 137.768234,377.891968 132.887344,391.637604 
	C130.216324,399.159698 127.148407,406.540955 124.483742,414.065155 
	C118.242706,431.687897 112.251320,449.399567 105.938744,466.996277 
	C101.180588,480.260010 95.979988,493.364532 91.171883,506.610931 
	C88.335403,514.425476 86.003876,522.422913 83.188225,530.245605 
	C82.161186,533.098999 80.326599,535.653320 78.974541,538.400269 
	C77.222107,541.960693 77.253876,544.710083 82.236023,545.104370 
	C83.986961,545.242920 85.712143,545.951782 87.451027,545.959473 
	C103.112717,546.028809 118.774857,546.003357 134.436859,545.994202 
	C135.763382,545.993469 137.108673,546.035706 138.412933,545.841248 
	C142.743347,545.195679 144.477173,543.442810 144.232376,538.286804 
	C143.675262,526.551941 144.522079,514.757263 144.435196,502.989532 
	C144.405914,499.022766 142.423218,495.961151 138.461136,493.890930 
	C131.074142,490.031097 123.905434,485.716248 116.868881,481.240204 
	C113.822136,479.302185 113.277641,476.843048 115.292198,472.881897 
	C119.184059,465.229462 121.845894,456.951477 125.129883,448.576874 
z"/>
</svg>